<svg width="82" height="77" viewBox="0 0 82 77" fill="none" xmlns="http://www.w3.org/2000/svg">
<path d="M12.3405 53.1988L12.4025 51.3465C13.9216 24.8976 21.8274 12.0527 41.9173 10.5344C47.2809 10.1396 53.2954 9.98779 59 10.5647C58.4419 9.56266 57.8529 8.56058 57.2328 7.55849C47.9939 -7.53349 26.8189 3.03394 12.8365 12.7815C-3.65708 24.2903 -3.59507 39.3822 9.24018 63.0679C17.0219 77.4007 24.8657 78.919 33.9186 75.3965C20.7423 75.0625 11.7824 71.7526 12.3405 53.1685V53.1988Z" fill="#9C9C9D"/>
<path d="M81.9039 34.7522C80.5655 55.8298 71.0408 74.2463 45.8594 74.8208C41.5328 74.9115 37.4552 75.0627 33.6889 74.972C20.4601 74.6394 11.4645 71.3432 12.0248 52.836L12.087 50.9913C13.6122 24.6519 21.5495 11.8601 41.7195 10.3481C47.1044 9.92475 53.143 9.83403 58.8703 10.3784C69.2354 11.4065 77.4528 15.1261 80.2542 21.7185C80.2542 21.7185 82.5576 25.5288 81.8728 34.7824L81.9039 34.7522Z" fill="white"/>
<path d="M62.8558 44.849C62.3929 44.4846 61.8684 44.181 61.3747 43.9077C60.5724 43.4826 59.6467 43.4218 58.8136 43.7255C56.5611 44.5454 54.432 45.0312 52.8584 45.3652C56.1908 46.671 58.6902 49.3128 58.3199 53.9587C57.9805 57.9973 54.8023 60.8821 50.9144 61.793C47.1191 62.6736 42.6759 62.3396 38.9731 61.2161C35.6715 60.214 32.6168 58.4225 30.21 55.9628C29.6546 55.3859 29.1609 54.8089 28.6672 54.1713C27.9266 53.2299 27.2786 52.2279 26.7232 51.1954C26.5689 50.8918 26.4147 50.6185 26.1987 50.3148C26.137 50.2237 26.0444 50.1934 25.9518 50.2237C25.9518 50.2237 25.7358 50.4059 25.7667 50.5274C25.921 51.2865 26.1987 51.9546 26.5072 52.653C26.8775 53.3818 27.2786 54.1105 27.7106 54.8089C33.419 63.7668 45.2369 66.6212 55.2652 64.3134C55.3269 64.3134 55.3886 64.3134 55.4503 64.283C58.7211 63.5239 61.9301 62.1271 64.2134 59.7282C66.7437 57.0256 67.5151 53.4425 66.466 49.9504C65.8797 47.9159 64.6454 46.094 62.9175 44.849H62.8558Z" fill="#0E1735"/>
<path d="M31.2593 32.0347C30.7964 32.0347 30.457 32.3384 30.457 32.885C30.457 33.5227 30.7039 33.7959 31.6296 33.7959C34.0055 33.7959 35.4866 35.132 35.4866 37.3487C35.4866 37.8649 35.5792 50.7096 35.61 56.0236C35.61 56.8434 36.0729 57.5722 36.7825 57.9366C38.7265 58.969 41.1333 59.9104 43.6326 60.0318C43.6326 56.3272 43.6326 49.5253 43.6326 46.0333C43.6326 45.0312 43.972 44.6668 44.9903 44.5454C45.6074 44.4543 46.2245 44.4239 46.8725 44.3935C51.8095 44.1506 57.2402 42.4501 57.2402 42.4501C58.135 42.0554 58.9064 41.7517 59.6161 41.357C62.7943 39.6565 64.8616 37.1665 64.9234 33.4619C65.0468 28.8464 62.3931 25.4758 57.8573 24.2004C54.8025 23.3502 51.6552 23.4716 48.5387 23.4716C47.829 23.4716 47.9525 23.9879 47.9216 24.413C47.9216 24.8685 47.9216 25.2632 48.5696 25.3239C53.63 25.7491 56.9008 29.484 56.5922 34.464C56.4379 36.954 55.4505 39.0188 53.1672 40.2638C50.5135 41.691 47.6439 41.8732 44.7126 41.4177C43.8795 41.2963 43.6326 40.8711 43.6326 39.9905C43.6326 37.956 43.6326 36.711 43.6326 34.6462C43.6326 34.13 43.6326 33.8263 43.6326 33.6441C43.6326 34.13 43.6326 32.885 43.6326 33.6441C43.6326 33.553 43.6326 33.4012 43.6326 33.0672C43.6326 32.5813 43.2315 32.1562 42.7069 32.1562L31.2284 32.0347H31.2593Z" fill="#0E1735"/>
<path d="M42.4288 22.3481H40.4231C40.1454 22.3481 39.9294 22.1356 39.9294 21.8623V19.8885C39.9294 19.6152 39.7134 19.4026 39.4357 19.4026H36.9672C36.6895 19.4026 36.4735 19.6152 36.4735 19.8885V21.8623C36.4735 22.1356 36.2575 22.3481 35.9798 22.3481H33.9742C33.6965 22.3481 33.4805 22.5607 33.4805 22.834V25.2632C33.4805 25.5365 33.6965 25.7491 33.9742 25.7491H35.9798C36.2575 25.7491 36.4735 25.9616 36.4735 26.2349V28.2087C36.4735 28.482 36.6895 28.6945 36.9672 28.6945H39.4357C39.7134 28.6945 39.9294 28.482 39.9294 28.2087V26.2349C39.9294 25.9616 40.1454 25.7491 40.4231 25.7491H42.4288C42.7065 25.7491 42.9224 25.5365 42.9224 25.2632V22.834C42.9224 22.5607 42.7065 22.3481 42.4288 22.3481Z" fill="#E79012"/>
</svg>
