<svg width="74" height="70" viewBox="0 0 74 70" fill="none" xmlns="http://www.w3.org/2000/svg">
<path d="M64.6402 4.81885C58.2019 -0.173526 49.5251 -0.687446 41.4228 3.43727C41.0134 3.57743 39.3296 4.11137 37.1967 4.12472C35.0308 4.11137 33.3998 3.60412 32.9441 3.44394C24.8352 -0.687447 16.1584 -0.1802 9.71356 4.81885C3.34793 9.75115 0.211343 18.2809 1.09619 28.2256C1.63106 34.1724 3.34133 41.107 5.91663 47.7346C9.54847 57.766 15.4387 69.7397 22.8674 69.8398H23.0985C28.8501 69.8398 31.115 66.7897 33.4988 60.7962L34.0337 59.4813C35.1761 56.9384 36.1666 56.598 37.1042 56.6448H37.2693C38.1872 56.6114 39.1777 56.9317 40.2805 59.3879L40.8417 60.7761C43.2321 66.7897 45.4971 69.8465 51.2486 69.8465H51.4863C58.9085 69.7464 64.7921 57.7861 68.4041 47.808C70.9992 41.1337 72.7161 34.1791 73.2444 28.2389C74.1292 18.2943 70.9926 9.7645 64.627 4.8322L64.6402 4.81885ZM65.7099 46.7601C61.1602 59.3211 55.8313 66.8564 51.4599 66.9165H51.2486C47.6696 66.9165 45.9593 65.8219 43.5161 59.6682L42.9284 58.2199C42.0568 56.2777 40.5314 53.7147 37.3684 53.7147C37.3023 53.7147 37.2429 53.7147 37.1769 53.7147C33.8884 53.6146 32.297 56.2576 31.3791 58.3133L30.8245 59.6816C28.3878 65.8152 26.6776 66.9098 23.0985 66.9098H22.8938C18.4564 66.8497 13.253 59.4947 8.6174 46.6934C7.44861 43.6899 6.47792 40.6331 5.71193 37.643H68.6418C67.8692 40.6465 66.8919 43.7233 65.7099 46.7601ZM70.3785 27.9653C70.187 30.1011 69.837 32.377 69.3352 34.7264H5.01858C4.52333 32.377 4.16675 30.1011 3.97525 27.9653C3.17625 19.0418 5.91003 11.4531 11.47 7.1415C17.0301 2.82991 24.6041 2.43612 31.7159 6.09364L31.881 6.16705C32.4357 6.36728 34.4563 7.03471 37.1967 7.04806C39.9569 7.02804 42.0832 6.30721 42.4794 6.16038L42.6444 6.08696C49.7563 2.43612 57.3237 2.82991 62.8837 7.1415C68.4437 11.4531 71.1775 19.0418 70.3785 27.9653Z" fill="#575857"/>
<path d="M52.7409 40.5197H38.1871V46.947C38.1871 51.4054 41.7728 55.0296 46.1838 55.0296H60.7376V48.6022C60.7376 44.1438 57.1519 40.5197 52.7409 40.5197ZM57.8519 52.1129H46.1904C43.3708 52.1129 41.0794 49.7969 41.0794 46.947V43.4363H52.7409C55.5605 43.4363 57.8519 45.7523 57.8519 48.6022V52.1129Z" fill="#575857"/>
<path d="M23.2504 12.3675C17.9347 12.3675 13.6161 16.7391 13.6161 22.1053C13.6161 27.4714 17.9413 31.8431 23.2504 31.8431C28.5595 31.8431 32.8847 27.4714 32.8847 22.1053C32.8847 16.7391 28.5595 12.3675 23.2504 12.3675ZM23.2504 28.9264C19.5327 28.9264 16.5018 25.8696 16.5018 22.1053C16.5018 18.341 19.5261 15.2841 23.2504 15.2841C26.9747 15.2841 29.999 18.341 29.999 22.1053C29.999 25.8696 26.9747 28.9264 23.2504 28.9264Z" fill="#575857"/>
<path d="M38.1871 23.7672C38.1871 28.2256 41.7728 31.8497 46.1838 31.8497H59.2914V28.9264H50.9052V15.2841H59.2914V12.3608H38.1871V23.7605V23.7672ZM41.0794 15.2908H48.0195V28.9331H46.1904C43.3708 28.9331 41.0794 26.6171 41.0794 23.7672V15.2908Z" fill="#575857"/>
</svg>
