<svg width="86" height="66" viewBox="0 0 86 66" fill="none" xmlns="http://www.w3.org/2000/svg">
<g clip-path="url(#clip0_195_19)">
<path d="M33.1689 33.6001C36.3467 33.6001 39.3194 32.3244 41.119 30.1717C41.6316 29.5681 41.5519 28.6569 40.9482 28.1443C40.3445 27.6318 39.4333 27.7115 38.9208 28.3152C37.6565 29.8186 35.5038 30.7184 33.1575 30.7184C30.8112 30.7184 28.6699 29.8186 27.4057 28.3152C26.8931 27.7115 25.9819 27.6318 25.3783 28.1443C24.7632 28.6569 24.6949 29.5681 25.2074 30.1717C27.0184 32.313 29.9911 33.6001 33.1575 33.6001H33.1689Z" fill="url(#paint0_linear_195_19)"/>
<path d="M28.5228 18.554C27.9078 18.0643 26.9966 18.1554 26.5068 18.7818C25.8348 19.6133 24.6958 20.1145 23.443 20.1145C22.1901 20.1145 21.0397 19.6133 20.3791 18.7818C19.8779 18.1554 18.9781 18.0643 18.3517 18.554C17.7366 19.0438 17.6341 19.955 18.1353 20.5701C19.3426 22.0849 21.3358 22.9847 23.443 22.9847C25.5501 22.9847 27.5433 22.0849 28.7506 20.5701C29.2518 19.955 29.1493 19.0438 28.5228 18.554Z" fill="url(#paint1_linear_195_19)"/>
<path d="M48.2261 20.5815C48.7272 19.9664 48.6247 19.0552 48.0097 18.5655C47.3946 18.0757 46.4834 18.1668 45.9937 18.7933C45.3217 19.6247 44.1827 20.1259 42.9298 20.1259C41.6769 20.1259 40.5265 19.6247 39.8659 18.7933C39.3762 18.1668 38.465 18.0757 37.8499 18.5655C37.2349 19.0552 37.1324 19.9664 37.6221 20.5815C38.8295 22.0963 40.8113 22.9961 42.9298 22.9961C45.0483 22.9961 47.0302 22.0963 48.2375 20.5815H48.2261Z" fill="url(#paint2_linear_195_19)"/>
<path d="M63.9335 31.2993C62.6009 32.1649 61.4847 33.247 60.5735 34.4771C59.7648 35.5933 59.127 36.8234 58.6828 38.1332C58.2158 38.0535 57.7716 37.9737 57.3274 37.9054C57.0768 37.8712 56.8376 37.8371 56.5985 37.8029C56.4846 37.7915 56.3707 37.7687 56.2568 37.7573C40.4021 36.0716 32.5203 43.2017 29.297 47.4729C27.3037 49.5572 25.7775 53.0539 24.2968 56.4936L23.8298 57.5643C23.4198 58.5096 23.0212 59.4436 22.6111 60.332C21.9391 61.8013 21.1988 62.6783 20.5723 62.6783C20.1509 62.6442 19.6498 62.2 19.3878 61.8697C18.955 61.1863 17.611 57.6782 16.1986 53.9765C14.1371 48.5891 11.3238 41.1971 8.35103 34.5454C5.66302 28.5543 4.14817 24.0212 3.85203 21.0826C3.27115 15.4104 4.39875 10.8887 7.18926 7.64256C9.67225 4.77232 13.3853 3.08662 17.6224 2.89299C21.905 2.69936 26.347 4.02059 29.3767 5.11401C26.4495 6.18466 22.6909 7.33503 19.0575 7.8248C18.2716 7.92731 17.7135 8.65626 17.8274 9.44216C17.9299 10.1597 18.5449 10.6837 19.2511 10.6837C19.3195 10.6837 19.3764 10.6837 19.4447 10.6723C27.4063 9.60161 35.6183 5.67212 35.9714 5.51266C35.9942 5.51266 36.0056 5.47849 36.017 5.4671C39.0125 4.35089 43.9785 2.67658 48.7508 2.89299C51.3136 3.00689 59.8446 4.1117 62.1339 13.5539C62.3162 14.3284 63.1021 14.7954 63.8652 14.6132C64.6397 14.4309 65.1181 13.645 64.9244 12.8819C62.7262 3.82696 55.1861 0.296104 48.8647 0.0227477C42.8623 -0.227829 36.7801 2.08431 33.8643 3.21191C33.6137 3.31442 33.3859 3.39414 33.1809 3.47387C32.9759 3.39414 32.7481 3.30303 32.4975 3.21191C29.5703 2.08431 23.4995 -0.239219 17.4857 0.0227477C12.4514 0.239155 8.00933 2.27794 5.00241 5.76323C1.72213 9.56745 0.321177 14.9662 0.981789 21.3673C1.31209 24.659 2.86112 29.3516 5.71997 35.7186C8.65855 42.2905 11.4605 49.637 13.5106 55.0016C15.4355 60.0587 16.3923 62.5189 16.9504 63.3959C17.0187 63.4984 17.087 63.5895 17.1554 63.692C17.4743 64.0907 18.6361 65.4119 20.3901 65.5486H20.6293C22.4631 65.5486 24.0121 64.1932 25.2308 61.528C25.6522 60.6168 26.0623 59.6714 26.4723 58.7033L26.9393 57.6326C28.7047 53.5437 30.8915 48.4638 33.1923 48.4638C35.493 48.4638 37.6799 53.5437 39.4339 57.6326L39.8895 58.7033C40.311 59.6714 40.721 60.6282 41.1424 61.528C42.3611 64.2046 43.9102 65.56 45.7439 65.56H46.0287C47.7258 65.4119 48.8875 64.0907 49.2064 63.692C49.2862 63.5895 49.3545 63.4984 49.4001 63.4187C49.9696 62.5303 50.9149 60.0587 52.8512 55.0016C54.5483 50.5595 56.7579 44.7621 59.1498 39.1583C60.3571 39.295 61.5758 39.2608 62.7718 39.0786C64.5144 38.8052 66.2115 38.2015 67.7605 37.1992C70.5852 35.3769 72.4531 32.5977 73.3074 29.4314C70.0726 28.9074 66.7696 29.4769 63.9449 31.2993H63.9335ZM45.9831 53.7829C45.22 53.7829 44.6049 53.1678 44.6049 52.4047V49.7736H41.9739C41.2108 49.7736 40.5957 49.1472 40.5957 48.3955C40.5957 47.6437 41.2221 47.0173 41.9739 47.0173H44.6049V44.3862C44.6049 43.6231 45.22 43.0081 45.9831 43.0081C46.7462 43.0081 47.3613 43.6231 47.3613 44.3862V47.0173H49.9923C50.7555 47.0173 51.3705 47.6323 51.3705 48.3955C51.3705 49.1586 50.7555 49.7736 49.9923 49.7736H47.3613V52.4047C47.3613 53.1678 46.7462 53.7829 45.9831 53.7829Z" fill="url(#paint3_linear_195_19)"/>
<path d="M71.8145 23.9756C71.0514 24.5679 70.368 24.192 70.1971 24.0781L67.5888 22.1646L71.5639 18.5996C71.9398 18.2693 72.0651 17.734 71.8828 17.267C71.7006 16.8 71.2564 16.4925 70.7552 16.4925H63.1012C62.4292 16.4925 61.8825 17.0392 61.8825 17.6998C61.8825 18.3604 62.4292 18.9071 63.1012 18.9071H67.5775L64.468 21.6863C64.3997 21.7318 64.32 21.7888 64.2516 21.8457L61.1536 24.659C60.6524 25.1032 60.6183 25.8777 61.0625 26.3675C61.3016 26.6295 61.632 26.7661 61.9623 26.7661C62.247 26.7661 62.5431 26.6636 62.7709 26.4586L65.7323 23.8048C65.8462 23.8845 65.9487 23.9756 65.9715 23.987L68.7392 26.0144C69.5251 26.5953 71.4728 27.3015 73.2952 25.8777C73.8191 25.4677 73.9216 24.7046 73.5002 24.1693C73.0901 23.6453 72.327 23.5428 71.8031 23.9642L71.8145 23.9756Z" fill="#0093DC"/>
<path d="M85.4484 19.3399C85.0383 18.816 84.2752 18.7135 83.7399 19.1349C82.9768 19.7272 82.2934 19.3513 82.1225 19.2374L79.5142 17.3239L83.4893 13.7589C83.8652 13.4286 83.9905 12.8933 83.8082 12.4263C83.626 11.9593 83.1818 11.6518 82.6692 11.6518H75.0153C74.3433 11.6518 73.7965 12.1985 73.7965 12.8591C73.7965 13.5197 74.3433 14.0664 75.0153 14.0664H79.4915L76.382 16.8456C76.3137 16.8911 76.234 16.9481 76.1656 17.005L73.0676 19.8183C72.5778 20.2625 72.5323 21.037 72.9765 21.5268C73.2157 21.7888 73.546 21.9254 73.8763 21.9254C74.161 21.9254 74.4572 21.8229 74.685 21.6179L77.6463 18.9641C77.7602 19.0438 77.8627 19.1235 77.8855 19.1463L80.6532 21.1851C81.4391 21.766 83.3868 22.4722 85.2092 21.0484C85.7331 20.6384 85.8242 19.8753 85.4142 19.3399H85.4484Z" fill="#0093DC"/>
</g>
<defs>
<linearGradient id="paint0_linear_195_19" x1="33.1803" y1="7.31228" x2="33.1803" y2="65.8789" gradientUnits="userSpaceOnUse">
<stop stop-color="#00B6ED"/>
<stop offset="1" stop-color="#0068B6"/>
</linearGradient>
<linearGradient id="paint1_linear_195_19" x1="23.443" y1="7.32365" x2="23.443" y2="65.8675" gradientUnits="userSpaceOnUse">
<stop stop-color="#00B6ED"/>
<stop offset="1" stop-color="#0068B6"/>
</linearGradient>
<linearGradient id="paint2_linear_195_19" x1="42.9184" y1="7.32367" x2="42.9184" y2="65.8675" gradientUnits="userSpaceOnUse">
<stop stop-color="#00B6ED"/>
<stop offset="1" stop-color="#0068B6"/>
</linearGradient>
<linearGradient id="paint3_linear_195_19" x1="37.0649" y1="7.32364" x2="37.0649" y2="65.8675" gradientUnits="userSpaceOnUse">
<stop stop-color="#00B6ED"/>
<stop offset="1" stop-color="#0068B6"/>
</linearGradient>
<clipPath id="clip0_195_19">
<rect width="84.8772" height="65.56" fill="white" transform="translate(0.822266)"/>
</clipPath>
</defs>
</svg>
